HIERARCHY
ROOT Hips
{
	OFFSET 47.617802 -22.231516 95.688904
	CHANNELS 6 Xposition Yposition Zposition Xrotation Yrotation Zrotation
	JOINT spine
	{
		OFFSET 0.000000 -0.467661 8.132492
		CHANNELS 3 Xrotation Yrotation Zrotation
		JOINT spine1
		{
			OFFSET 0.000000 -0.000002 10.349800
			CHANNELS 3 Xrotation Yrotation Zrotation
			JOINT spine2
			{
				OFFSET 0.000000 -0.000002 9.916992
				CHANNELS 3 Xrotation Yrotation Zrotation
				JOINT Neck
				{
					OFFSET 0.000000 -1.213903 25.461006
					CHANNELS 3 Xrotation Yrotation Zrotation
					JOINT Head
					{
						OFFSET 0.000000 0.000000 7.692444
						CHANNELS 3 Xrotation Yrotation Zrotation
						End Site
						{
							OFFSET 0.000000 6.140625 18.619995
						}
					}
				}
				JOINT RightShoulder
				{
					OFFSET -4.175751 0.581444 10.709602
					CHANNELS 3 Xrotation Yrotation Zrotation
					JOINT RightArm
					{
						OFFSET 0.000000 -0.000002 14.046600
						CHANNELS 3 Xrotation Yrotation Zrotation
						JOINT RightArmRoll
						{
							OFFSET 0.000000 0.000000 7.090973
							CHANNELS 3 Xrotation Yrotation Zrotation
							JOINT RightForeArm
							{
								OFFSET 0.000000 -0.000004 20.653503
								CHANNELS 3 Xrotation Yrotation Zrotation
								JOINT RightForeArmRoll
								{
									OFFSET 0.000000 -0.000002 7.957184
									CHANNELS 3 Xrotation Yrotation Zrotation
									JOINT RightHand
									{
										OFFSET 0.000000 -0.000002 15.968292
										CHANNELS 3 Xrotation Yrotation Zrotation
										End Site
										{
											OFFSET 0.000000 0.000000 0.100006
										}
									}
								}
							}
						}
					}
				}
				JOINT LeftShoulder
				{
					OFFSET 4.175751 0.581444 10.709602
					CHANNELS 3 Xrotation Yrotation Zrotation
					JOINT LeftArm
					{
						OFFSET 0.000000 -0.000002 14.046600
						CHANNELS 3 Xrotation Yrotation Zrotation
						JOINT LeftArmRoll
						{
							OFFSET 0.000000 0.000000 7.090973
							CHANNELS 3 Xrotation Yrotation Zrotation
							JOINT LeftForeArm
							{
								OFFSET 0.000000 -0.000004 20.653503
								CHANNELS 3 Xrotation Yrotation Zrotation
								JOINT LeftForeArmRoll
								{
									OFFSET 0.000000 -0.000002 7.957184
									CHANNELS 3 Xrotation Yrotation Zrotation
									JOINT LeftHand
									{
										OFFSET 0.000000 -0.000002 15.968292
										CHANNELS 3 Xrotation Yrotation Zrotation
										End Site
										{
											OFFSET 0.000000 0.000000 0.100006
										}
									}
								}
							}
						}
					}
				}
			}
		}
	}
	JOINT RightUpLeg
	{
		OFFSET -7.208340 1.108839 -1.321823
		CHANNELS 3 Xrotation Yrotation Zrotation
		JOINT RightUpLegRoll
		{
			OFFSET 0.000000 -0.000004 18.723801
			CHANNELS 3 Xrotation Yrotation Zrotation
			JOINT RightLeg
			{
				OFFSET 0.000000 0.000004 -23.186600
				CHANNELS 3 Xrotation Yrotation Zrotation
				JOINT RightLegRoll
				{
					OFFSET 0.000000 -0.000004 23.262398
					CHANNELS 3 Xrotation Yrotation Zrotation
					JOINT RightFoot
					{
						OFFSET 0.000000 -0.000002 19.362099
						CHANNELS 3 Xrotation Yrotation Zrotation
						JOINT RightToeBase
						{
							OFFSET 0.000000 -0.000004 16.185699
							CHANNELS 3 Xrotation Yrotation Zrotation
							End Site
							{
								OFFSET 0.006859 0.903522 7.838623
							}
						}
					}
				}
			}
		}
	}
	JOINT LeftUpLeg
	{
		OFFSET 7.208340 1.108839 -1.321823
		CHANNELS 3 Xrotation Yrotation Zrotation
		JOINT LeftUpLegRoll
		{
			OFFSET 0.000000 -0.000004 18.723900
			CHANNELS 3 Xrotation Yrotation Zrotation
			JOINT LeftLeg
			{
				OFFSET 0.000000 -0.000004 23.186501
				CHANNELS 3 Xrotation Yrotation Zrotation
				JOINT LeftLegRoll
				{
					OFFSET 0.000000 -0.000004 23.477493
					CHANNELS 3 Xrotation Yrotation Zrotation
					JOINT LeftFoot
					{
						OFFSET 0.000000 -0.000002 19.147003
						CHANNELS 3 Xrotation Yrotation Zrotation
						JOINT LeftToeBase
						{
							OFFSET 0.000000 -0.000004 16.185699
							CHANNELS 3 Xrotation Yrotation Zrotation
							End Site
							{
								OFFSET -0.030746 0.903522 7.838623
							}
						}
					}
				}
			}
		}
	}
}
MOTION
Frames: 7
Frame Time: 0.041667
50.235001 -25.402927 95.963898 -1.325964 -6.254381 52.403424 -1.245687 0.196504 1.003598 1.509003 0.381010 2.009403 3.153679 0.405052 2.004695 -2.042331 16.000454 4.667477 3.482325 -4.747661 2.541118 -11.385869 -31.745217 -11.807896 -66.974444 -213.440174 -75.087678 -0.000002 0.000003 0.000007 14.996795 4.816206 -1.243402 -0.000006 0.000006 -3.007179 -5.000162 -7.999842 0.000014 -37.817689 58.399641 44.736431 -68.753743 114.498211 61.768153 -0.000000 -0.000018 0.000003 10.053982 9.718820 -0.018627 -0.000001 -0.000004 3.003720 -5.000209 7.998914 -0.000129 2.587928 -167.628237 7.617378 -179.999991 0.000006 -1.030000 161.580692 -1.259991 -0.640583 0.000001 -0.000001 0.750625 76.872229 6.647806 2.252777 25.998372 -7.346764 0.772334 -1.833186 176.914576 3.620449 -0.000020 -0.000004 -1.044159 -8.923884 -2.792845 0.404265 0.000000 0.000001 0.292453 66.187053 -5.995083 -4.475476 25.456953 7.355610 -0.000012 
50.177605 -25.461521 95.962990 -1.302555 -6.263724 52.444559 -1.245008 0.200566 1.007710 1.510125 0.389095 2.017653 3.154791 0.413234 2.012848 -2.133797 16.142587 4.689478 3.526813 -4.899790 2.546864 -11.338131 -31.517836 -11.723855 -66.733154 -213.542709 -75.416859 -0.000002 0.000001 0.000005 14.313779 4.700987 -1.206170 -0.000006 0.000005 -3.007183 -5.000163 -7.999841 0.000018 -37.965716 58.481548 44.899874 -68.751817 114.478977 61.715766 -0.000001 -0.000019 0.000003 9.994664 9.709000 -0.010815 -0.000001 -0.000004 3.003720 -5.000212 7.998915 -0.000130 2.600157 -167.653332 7.615409 -179.999991 0.000006 -1.026997 161.585542 -1.279949 -0.642100 0.000001 0.000001 0.750358 76.924766 6.646513 2.253042 25.985245 -7.346855 0.754052 -1.853822 176.904632 3.630738 -0.000019 -0.000005 -1.044838 -8.921724 -2.812541 0.402283 0.000000 0.000001 0.292621 66.194095 -6.000764 -4.461690 25.456957 7.355613 -0.000011 
50.123001 -25.511824 95.964401 -1.280594 -6.272508 52.485462 -1.244167 0.204460 1.011539 1.511566 0.396844 2.025359 3.156236 0.421076 2.020460 -2.224928 16.282968 4.712583 3.572207 -5.050492 2.553816 -11.285656 -31.303040 -11.633618 -66.484324 -213.629930 -75.718487 -0.000003 0.000001 0.000004 13.650354 4.586398 -1.170900 -0.000009 0.000006 -3.007177 -5.000163 -7.999843 0.000017 -38.112172 58.563012 45.061418 -68.749378 114.458753 61.660373 0.000000 -0.000018 0.000003 9.933190 9.698286 -0.002590 0.000001 -0.000004 3.003720 -5.000215 7.998913 -0.000131 2.612214 -167.680420 7.612470 -179.999991 0.000005 -1.024002 161.590501 -1.298962 -0.643294 0.000001 0.000000 0.749986 76.975897 6.645269 2.253187 25.972520 -7.346936 0.736286 -1.874151 176.892651 3.639874 -0.000020 -0.000005 -1.045488 -8.919411 -2.832250 0.400340 -0.000000 0.000001 0.292837 66.200789 -6.006259 -4.448384 25.456955 7.355612 -0.000012 
50.061401 -25.567522 95.964088 -1.260224 -6.280734 52.525907 -1.243189 0.208179 1.015042 1.513307 0.404256 2.032423 3.157968 0.428571 2.027426 -2.315382 16.421013 4.736941 3.618828 -5.199242 2.562268 -11.227808 -31.102373 -11.536396 -66.227850 -213.699776 -75.992029 -0.000004 0.000001 0.000006 13.005322 4.473873 -1.137499 -0.000006 0.000007 -3.007177 -5.000162 -7.999840 0.000018 -38.256972 58.643615 45.220900 -68.745301 114.436965 61.600561 -0.000001 -0.000018 0.000003 9.869742 9.686589 0.006058 -0.000005 -0.000003 3.003720 -5.000207 7.998913 -0.000128 2.624113 -167.709517 7.608407 -179.999991 0.000005 -1.020999 161.595664 -1.317978 -0.645501 0.000002 0.000000 0.749486 77.025443 6.644133 2.253448 25.960099 -7.347021 0.718997 -1.893946 176.878704 3.647627 -0.000020 -0.000005 -1.046079 -8.916762 -2.851891 0.398425 -0.000000 0.000002 0.293115 66.206998 -6.011568 -4.435463 25.456959 7.355619 -0.000012 
50.008102 -25.617523 95.955589 -1.241590 -6.288394 52.565990 -1.242095 0.211725 1.018171 1.515319 0.411327 2.038709 3.159981 0.435716 2.033636 -2.404824 16.556008 4.762701 3.667036 -5.345508 2.572499 -11.163936 -30.917258 -11.431426 -65.963481 -213.750347 -76.235068 -0.000003 0.000001 0.000005 12.377470 4.365005 -1.105696 -0.000006 0.000007 -3.007184 -5.000164 -7.999842 0.000018 -38.399764 58.723139 45.378076 -68.739229 114.413243 61.535736 -0.000001 -0.000019 0.000003 9.804496 9.673810 0.015143 -0.000004 -0.000004 3.003720 -5.000212 7.998914 -0.000128 2.635910 -167.739597 7.603141 -179.999991 0.000005 -1.017993 161.600814 -1.336994 -0.647692 -0.000000 -0.000001 0.748874 77.073589 6.643073 2.253494 25.947986 -7.347097 0.702159 -1.913012 176.862749 3.653812 -0.000020 -0.000005 -1.046619 -8.913570 -2.871420 0.396559 -0.000000 0.000002 0.293479 66.212359 -6.016691 -4.423053 25.456953 7.355612 -0.000011 
49.939400 -25.669622 95.954193 -1.224858 -6.295494 52.605267 -1.240899 0.215096 1.020867 1.517590 0.418052 2.044143 3.162254 0.442505 2.038984 -2.492882 16.687672 4.789999 3.717168 -5.488773 2.584808 -11.093389 -30.749109 -11.317887 -65.690485 -213.779266 -76.445089 -0.000001 0.000001 0.000002 11.765892 4.261221 -1.075335 -0.000005 0.000007 -3.007179 -5.000162 -7.999843 0.000017 -38.540176 58.801488 45.532565 -68.730589 114.387036 61.465105 -0.000001 -0.000019 0.000003 9.737614 9.659833 0.024678 0.000002 -0.000003 3.003722 -5.000214 7.998915 -0.000130 2.647614 -167.771671 7.596513 -179.999991 0.000005 -1.016000 161.606169 -1.354122 -0.649241 0.000000 -0.000001 0.748124 77.120151 6.642145 2.253555 25.936170 -7.347179 0.685754 -1.931116 176.843788 3.658245 -0.000020 -0.000005 -1.047095 -8.909640 -2.890744 0.394756 -0.000000 0.000002 0.293948 66.216942 -6.021578 -4.411235 25.456957 7.355613 -0.000016 
49.883499 -25.724024 95.951782 -1.209528 -6.302301 52.644503 -1.239517 0.218492 1.023334 1.520251 0.424827 2.049114 3.164908 0.449340 2.043878 -2.580835 16.814894 4.818549 3.770363 -5.628560 2.598794 -11.017259 -30.594275 -11.197019 -65.404314 -213.797420 -76.621977 -0.000002 0.000002 0.000005 11.167328 4.161968 -1.044703 -0.000004 0.000006 -3.007180 -5.000165 -7.999841 0.000018 -38.678620 58.879202 45.684728 -68.723909 114.360152 61.392636 0.000001 -0.000018 0.000002 9.668698 9.644333 0.034791 -0.000002 -0.000003 3.003720 -5.000212 7.998915 -0.000129 2.659355 -167.805740 7.588980 -179.999991 0.000005 -1.014006 161.611647 -1.371251 -0.651790 0.000001 -0.000000 0.747230 77.164957 6.641260 2.253621 25.924953 -7.347248 0.670082 -1.948251 176.822833 3.661377 -0.000019 -0.000004 -1.047500 -8.905024 -2.909960 0.392936 0.000000 0.000002 0.294437 66.221116 -6.026467 -4.399436 25.456957 7.355617 -0.000013 
